<?xml version="1.0" encoding="utf-8"?>
<!-- Generator: Adobe Illustrator 22.0.1, SVG Export Plug-In . SVG Version: 6.00 Build 0)  -->
<svg version="1.1" id="_1" xmlns="http://www.w3.org/2000/svg" xmlns:xlink="http://www.w3.org/1999/xlink" x="0px" y="0px"
	 viewBox="0 0 52.2 63.2" style="enable-background:new 0 0 52.2 63.2;" xml:space="preserve">
<style type="text/css">
	.st0{fill:#FFFFFF;}
	.st1{fill:#004584;}
	.st2{fill:#E49800;}
	.st3{fill:#D69A00;}
</style>
<title>ac_ctc_logo</title>
<g>
	<path class="st0" d="M24.1,0.5C19.9,2.6,8.8,8.8,2,16.9c-0.7,0.8-1.1,1.9-1,3c0.9,9.6,3.9,19,8.8,27.3c0.6,1.1,1.8,1.8,3,1.9
		c8.7,1.1,17.5,1.1,26.2,0c1.1-0.2,2-0.8,2.7-1.7c2.3-3.2,7.4-12,9.5-26.6c0.2-1.1-0.2-2.3-1-3.2C47.1,14.2,38.5,4.9,27.6,0.3
		C26.4-0.1,25.2-0.1,24.1,0.5z"/>
	<path class="st1" d="M24.4,3.9c-3.6,1.9-13.1,7.2-19,14.1c-0.6,0.7-0.9,1.6-0.8,2.6c0.7,8.3,3.3,16.3,7.6,23.4
		c0.5,0.9,1.5,1.5,2.5,1.7c7.5,1,15,1,22.5,0c0.9-0.1,1.8-0.7,2.3-1.5c1.9-2.8,6.4-10.3,8.1-22.8c0.1-1-0.2-2-0.8-2.7
		c-2.6-3-10-11-19.4-14.9C26.4,3.4,25.4,3.5,24.4,3.9z"/>
	<path class="st2" d="M26.5,48.4c-4.2,0-8.5-0.3-12.7-0.8c-1.3-0.2-2.4-0.9-3-2c-4.6-7.7-7.4-16.3-8.2-25.3c-0.1-1.1,0.3-2.2,1-3.1
		C9.9,9.9,20,4.1,24.1,2l0,0c1.1-0.6,2.4-0.6,3.5-0.1c9.5,4,17.2,11.8,21,16.1c0.8,0.9,1.1,2.1,1,3.3c-2,13.6-6.8,21.8-8.8,24.7
		c-0.6,0.9-1.6,1.6-2.7,1.7C34.2,48.1,30.3,48.4,26.5,48.4z M24.5,2.8c-4,2.1-14,7.7-20.2,15c-0.6,0.7-0.9,1.6-0.8,2.5
		c0.8,8.8,3.5,17.3,8,24.9c0.5,0.9,1.4,1.5,2.4,1.6c8,1,16,1,24,0c0.9-0.1,1.7-0.6,2.2-1.4c2-2.8,6.8-10.9,8.6-24.3
		c0.1-0.9-0.2-1.9-0.8-2.6C44.2,14.3,36.6,6.6,27.3,2.7C26.4,2.3,25.3,2.3,24.5,2.8L24.5,2.8z"/>
	<polyline class="st0" points="26.1,41 28.4,32.1 38.6,42.4 31.4,29.5 42,31.1 33,26.1 45.1,19.8 32,22.4 32,17.7 28.4,20.9 
		26.1,16.9 26.1,16.9 26.1,16.9 26.1,16.9 26.1,16.9 23.8,20.9 20.2,17.7 20.2,22.4 7.1,19.8 19.3,26.1 10.2,31.1 20.8,29.5 
		13.6,42.4 23.8,32.1 26.1,41 	"/>
	<polyline class="st3" points="26.1,32.8 27.1,28.8 31.6,33.4 28.5,27.7 33.1,28.4 29.1,26.2 34.5,23.4 28.7,24.6 28.7,22.5 
		27.1,23.9 26.1,22.2 26.1,22.2 26.1,22.2 26.1,22.2 26.1,22.2 25.1,23.9 23.5,22.5 23.5,24.6 17.7,23.4 23.1,26.2 19.1,28.4 
		23.8,27.7 20.6,33.4 25.1,28.8 26.1,32.8 	"/>
	<g>
		<path class="st3" d="M10.8,63.1H8.3L7.4,61h-4l-0.9,2.2H0l4.2-9.8h2.5L10.8,63.1z M5.4,55.8l-1.5,3.6h2.9L5.4,55.8z"/>
		<path class="st3" d="M22.1,63.1h-11v-9.8h2.4v7.9H18v-7.9h2.4v7.9h1.7V63.1z"/>
		<path class="st3" d="M33,63.2h-4.2c-1.2,0-2.3-0.5-2.9-1.5c-1.5-2-1.6-4.7-0.2-6.8c0.7-1,1.8-1.7,3.1-1.7H33v2h-4.3
			c-0.6,0-1.1,0.3-1.4,0.8c-1,1.3-0.9,3.2,0.1,4.5c0.3,0.4,0.8,0.6,1.3,0.6H33L33,63.2z"/>
		<path class="st3" d="M52.2,63.2H48c-1.2,0-2.3-0.5-2.9-1.5c-1.5-2-1.6-4.7-0.1-6.8c0.7-1,1.8-1.7,3.1-1.6h4.2v2H48
			c-0.6,0-1.1,0.3-1.4,0.8c-1,1.3-0.9,3.2,0.1,4.5c0.3,0.4,0.8,0.6,1.3,0.6h4.2V63.2z"/>
		<polygon class="st3" points="43.9,53.3 34.5,53.3 34.5,55.3 38.2,55.3 38.2,63.1 40.2,63.1 40.2,55.3 43.9,55.3 		"/>
	</g>
</g>
</svg>
