<?xml version="1.0" encoding="utf-8"?>
<!-- Generator: Adobe Illustrator 22.0.1, SVG Export Plug-In . SVG Version: 6.00 Build 0)  -->
<svg version="1.1" id="_1" xmlns="http://www.w3.org/2000/svg" xmlns:xlink="http://www.w3.org/1999/xlink" x="0px" y="0px"
	 viewBox="0 0 32.5 38.1" style="enable-background:new 0 0 32.5 38.1;" xml:space="preserve">
<style type="text/css">
	.st0{fill:#FFFFFF;}
	.st1{fill:#004584;}
	.st2{fill:#E49800;}
	.st3{fill:#D69A00;}
</style>
<title>ac_ctc_logo</title>
<g>
	<g>
		<path class="st0" d="M15,0.3C12.5,1.6,6,5.2,2,10c-0.4,0.4-0.6,1.1-0.6,1.7c0.5,5.7,2.3,11.2,5.2,16.1c0.4,0.6,1,1.1,1.8,1.1
			c5.1,0.7,10.3,0.7,15.4,0c0.6-0.1,1.2-0.5,1.6-1c1.3-1.9,4.4-7.1,5.6-15.7c0.1-0.7-0.1-1.4-0.6-1.9C28.6,8.2,23.5,2.8,17,0.1
			C16.4-0.1,15.6-0.1,15,0.3z"/>
		<path class="st1" d="M15.2,2.3C13.1,3.4,7.5,6.5,4,10.6c-0.4,0.4-0.5,1-0.5,1.5c0.4,4.9,2,9.6,4.5,13.8c0.3,0.5,0.9,0.9,1.5,1
			c4.4,0.6,8.8,0.6,13.2,0c0.5-0.1,1-0.4,1.3-0.9c1.1-1.6,3.8-6,4.8-13.4c0.1-0.6-0.1-1.2-0.5-1.6c-1.5-1.8-5.9-6.5-11.4-8.8
			C16.4,2,15.7,2,15.2,2.3z"/>
		<path class="st2" d="M16.4,28.5c-2.5,0-5-0.2-7.5-0.5c-0.7-0.1-1.4-0.5-1.8-1.2C4.5,22.3,2.8,17.2,2.3,12
			c-0.1-0.7,0.2-1.3,0.6-1.8c3.7-4.4,9.7-7.7,12.1-9l0,0c0.6-0.3,1.4-0.4,2.1-0.1c5.6,2.4,10.2,6.9,12.4,9.5
			c0.5,0.5,0.7,1.2,0.6,1.9c-1.2,8-4,12.9-5.2,14.5c-0.4,0.5-1,0.9-1.6,1C21,28.4,18.7,28.5,16.4,28.5z M15.2,1.6
			c-2.4,1.2-8.3,4.6-11.9,8.8c-0.3,0.4-0.5,0.9-0.5,1.4C3.3,17,4.9,22,7.5,26.5c0.3,0.5,0.8,0.9,1.4,0.9c4.7,0.6,9.4,0.6,14.1,0
			c0.5-0.1,1-0.4,1.3-0.8c1.2-1.7,4-6.4,5.1-14.3c0.1-0.5-0.1-1.1-0.5-1.5c-2.2-2.5-6.7-7-12.2-9.3C16.4,1.4,15.7,1.4,15.2,1.6
			L15.2,1.6z"/>
		<polyline class="st0" points="16.2,24.2 17.5,18.9 23.6,25 19.3,17.4 25.5,18.3 20.2,15.4 27.4,11.7 19.6,13.2 19.6,10.4 
			17.5,12.3 16.2,10 16.2,10 16.2,10 16.2,10 16.2,10 14.8,12.3 12.7,10.4 12.7,13.2 5,11.7 12.2,15.4 6.8,18.3 13,17.4 8.8,25 
			14.8,18.9 16.2,24.2 		"/>
		<polyline class="st3" points="16.2,19.3 16.8,17 19.4,19.7 17.6,16.3 20.3,16.7 18,15.4 21.1,13.8 17.7,14.5 17.7,13.3 16.8,14.1 
			16.2,13.1 16.2,13.1 16.2,13.1 16.2,13.1 16.2,13.1 15.6,14.1 14.7,13.3 14.7,14.5 11.2,13.8 14.4,15.4 12.1,16.7 14.8,16.3 
			12.9,19.7 15.6,17 16.2,19.3 		"/>
	</g>
	<g>
		<path class="st3" d="M6.7,38H5.1l-0.5-1.4H2.1L1.5,38H0l2.6-6.1h1.5L6.7,38z M3.4,33.5l-0.9,2.3h1.8L3.4,33.5z"/>
		<path class="st3" d="M13.8,38H7V32h1.5v4.9h2.8V32h1.5v4.9h1.1L13.8,38L13.8,38z"/>
		<path class="st3" d="M20.5,38.1h-2.6c-0.7,0-1.4-0.3-1.8-0.9c-0.9-1.2-1-2.9-0.1-4.2c0.4-0.7,1.1-1,1.9-1h2.6v1.3h-2.6
			c-0.4,0-0.7,0.2-0.9,0.5c-0.6,0.8-0.6,2,0.1,2.8c0.2,0.3,0.5,0.4,0.8,0.4h2.6L20.5,38.1z"/>
		<path class="st3" d="M32.5,38.1h-2.6c-0.7,0-1.4-0.3-1.8-0.9c-0.9-1.2-1-2.9-0.1-4.2c0.4-0.7,1.1-1,1.9-1h2.6v1.2h-2.6
			c-0.4,0-0.7,0.2-0.9,0.5c-0.6,0.8-0.6,2,0.1,2.8c0.2,0.3,0.5,0.4,0.8,0.4h2.6L32.5,38.1L32.5,38.1z"/>
		<polygon class="st3" points="27.3,31.9 21.4,31.9 21.4,33.2 23.7,33.2 23.7,38.1 25,38.1 25,33.2 27.3,33.2 		"/>
	</g>
</g>
</svg>
