<?xml version="1.0" encoding="utf-8"?>
<!-- Generator: Adobe Illustrator 22.0.1, SVG Export Plug-In . SVG Version: 6.00 Build 0)  -->
<svg version="1.1" id="Слой_1" xmlns="http://www.w3.org/2000/svg" xmlns:xlink="http://www.w3.org/1999/xlink" x="0px" y="0px"
	 viewBox="0 0 36 48" style="enable-background:new 0 0 36 48;" xml:space="preserve">
<style type="text/css">
	.st0{fill:url(#SVGID_1_);}
	.st1{fill:url(#SVGID_2_);}
	.st2{enable-background:new    ;}
	.st3{fill:#FFFFFF;}
</style>
<title>icon_word</title>
<linearGradient id="SVGID_1_" gradientUnits="userSpaceOnUse" x1="0" y1="24.6929" x2="36" y2="24.6929" gradientTransform="matrix(1 0 0 -1 0 48.6929)">
	<stop  offset="0" style="stop-color:#4592BB"/>
	<stop  offset="1" style="stop-color:#42ACE2"/>
</linearGradient>
<path class="st0" d="M25,0H3.8C1.7,0,0,1.7,0,3.8v40.4C0,46.3,1.7,48,3.8,48h28.4c2.1,0,3.8-1.7,3.8-3.8V11H25V0z"/>
<linearGradient id="SVGID_2_" gradientUnits="userSpaceOnUse" x1="25" y1="43.1929" x2="36" y2="43.1929" gradientTransform="matrix(1 0 0 -1 0 48.6929)">
	<stop  offset="0" style="stop-color:#4592BB"/>
	<stop  offset="1" style="stop-color:#42ACE2"/>
</linearGradient>
<path class="st1" d="M25.5,0H25v11h11v-0.5L25.5,0z"/>
<g class="st2">
	<path class="st3" d="M12.8,21.8l-1.7,6.3H9.5l-1-4c-0.1-0.2-0.1-0.4-0.1-0.7h0c0,0.3-0.1,0.5-0.1,0.7l-1.1,4H5.5l-1.7-6.3h1.6
		L6.3,26c0,0.2,0.1,0.4,0.1,0.7h0c0-0.2,0.1-0.5,0.1-0.7l1.1-4.2h1.5l1,4.2c0,0.2,0.1,0.4,0.1,0.7h0c0-0.2,0-0.5,0.1-0.7l0.9-4.2
		H12.8z"/>
	<path class="st3" d="M16.2,28.2c-0.9,0-1.6-0.3-2.2-0.9c-0.6-0.6-0.9-1.4-0.9-2.3c0-1,0.3-1.8,0.9-2.4s1.3-0.9,2.3-0.9
		c0.9,0,1.6,0.3,2.2,0.9c0.6,0.6,0.8,1.4,0.8,2.3c0,1-0.3,1.8-0.9,2.4C17.9,27.9,17.2,28.2,16.2,28.2z M16.3,22.9
		c-0.5,0-0.9,0.2-1.2,0.6c-0.3,0.4-0.4,0.9-0.4,1.5c0,0.6,0.1,1.1,0.4,1.5s0.7,0.5,1.2,0.5c0.5,0,0.9-0.2,1.2-0.5
		c0.3-0.4,0.4-0.8,0.4-1.5c0-0.7-0.1-1.2-0.4-1.5S16.8,22.9,16.3,22.9z"/>
	<path class="st3" d="M25.7,28.1h-1.6l-1-1.6c-0.1-0.1-0.1-0.2-0.2-0.3s-0.1-0.2-0.2-0.2c-0.1-0.1-0.1-0.1-0.2-0.2
		c-0.1,0-0.2-0.1-0.2-0.1h-0.4v2.4h-1.4v-6.3h2.3c1.5,0,2.3,0.6,2.3,1.7c0,0.2,0,0.4-0.1,0.6c-0.1,0.2-0.2,0.4-0.3,0.5
		c-0.1,0.1-0.3,0.3-0.4,0.4c-0.2,0.1-0.4,0.2-0.6,0.3v0c0.1,0,0.2,0.1,0.3,0.1c0.1,0.1,0.2,0.1,0.3,0.2s0.2,0.2,0.2,0.3
		c0.1,0.1,0.1,0.2,0.2,0.3L25.7,28.1z M21.8,22.8v1.8h0.6c0.3,0,0.5-0.1,0.7-0.3c0.2-0.2,0.3-0.4,0.3-0.7c0-0.6-0.3-0.8-1-0.8H21.8z
		"/>
	<path class="st3" d="M26.3,28.1v-6.3h2.2c2.2,0,3.4,1,3.4,3.1c0,1-0.3,1.8-0.9,2.4c-0.6,0.6-1.4,0.9-2.4,0.9H26.3z M27.7,22.9v4
		h0.7c0.6,0,1.1-0.2,1.4-0.6c0.4-0.4,0.5-0.9,0.5-1.5c0-0.6-0.2-1.1-0.5-1.4c-0.3-0.3-0.8-0.5-1.5-0.5H27.7z"/>
</g>
</svg>
