<?xml version="1.0" encoding="utf-8"?>
<!-- Generator: Adobe Illustrator 22.0.1, SVG Export Plug-In . SVG Version: 6.00 Build 0)  -->
<svg version="1.1" id="Слой_1" xmlns="http://www.w3.org/2000/svg" xmlns:xlink="http://www.w3.org/1999/xlink" x="0px" y="0px"
	 viewBox="0 0 36 48" style="enable-background:new 0 0 36 48;" xml:space="preserve">
<style type="text/css">
	.st0{fill:url(#SVGID_1_);}
	.st1{fill:url(#SVGID_2_);}
	.st2{enable-background:new    ;}
	.st3{fill:#FFFFFF;}
</style>
<title>icon_pdf</title>
<linearGradient id="SVGID_1_" gradientUnits="userSpaceOnUse" x1="18.1497" y1="30.7129" x2="17.4797" y2="3.7729" gradientTransform="matrix(1 0 0 -1 0 48.6929)">
	<stop  offset="0" style="stop-color:#B44F46"/>
	<stop  offset="1" style="stop-color:#C54F46"/>
</linearGradient>
<path class="st0" d="M25,0H3.8C1.7,0,0,1.7,0,3.8v40.4C0,46.3,1.7,48,3.8,48h28.4c2.1,0,3.8-1.7,3.8-3.8V11H25V0z"/>
<linearGradient id="SVGID_2_" gradientUnits="userSpaceOnUse" x1="16.3622" y1="29.8406" x2="25.3622" y2="38.3406" gradientTransform="matrix(1 0 0 -1 0 48.6929)">
	<stop  offset="0" style="stop-color:#B44F46"/>
	<stop  offset="1" style="stop-color:#C54F46"/>
</linearGradient>
<path class="st1" d="M25.5,0H25v11h11v-0.5L25.5,0z"/>
<g class="st2">
	<path class="st3" d="M11.7,25.9v2.2h-1.4v-6.3h2.2c1.6,0,2.4,0.7,2.4,2c0,0.6-0.2,1.1-0.7,1.5c-0.5,0.4-1.1,0.6-1.8,0.6H11.7z
		 M11.7,22.9v2h0.6c0.8,0,1.1-0.3,1.1-1c0-0.6-0.4-1-1.1-1H11.7z"/>
	<path class="st3" d="M15.8,28.1v-6.3h2.2c2.2,0,3.4,1,3.4,3.1c0,1-0.3,1.8-0.9,2.4c-0.6,0.6-1.4,0.9-2.4,0.9H15.8z M17.2,22.9v4H18
		c0.6,0,1.1-0.2,1.4-0.6c0.3-0.4,0.5-0.9,0.5-1.5c0-0.6-0.2-1.1-0.5-1.4c-0.3-0.3-0.8-0.5-1.5-0.5H17.2z"/>
	<path class="st3" d="M26.1,22.9h-2.2v1.5h2v1.2h-2v2.4h-1.4v-6.3h3.6V22.9z"/>
</g>
</svg>
